<?xml version="1.0" encoding="utf-8"?>
<!-- Generator: Adobe Illustrator 22.0.0, SVG Export Plug-In . SVG Version: 6.00 Build 0)  -->
<svg version="1.1" id="图层_1" xmlns="http://www.w3.org/2000/svg" xmlns:xlink="http://www.w3.org/1999/xlink" x="0px" y="0px"
	 viewBox="0 0 453.5 255.1" style="enable-background:new 0 0 453.5 255.1;" xml:space="preserve">
<style type="text/css">
	.st0{fill:#E5E5E5;}
	.st1{opacity:0.72;}
	.st2{fill:url(#SVGID_1_);}
	.st3{fill:url(#SVGID_2_);}
	.st4{fill:url(#SVGID_3_);}
	.st5{fill:url(#SVGID_4_);}
	.st6{fill:url(#SVGID_5_);}
	.st7{fill:url(#SVGID_6_);}
	.st8{fill:url(#SVGID_7_);}
	.st9{opacity:0.8;}
	.st10{fill:url(#SVGID_8_);}
	.st11{fill:url(#SVGID_9_);}
	.st12{fill:url(#SVGID_10_);}
	.st13{fill:url(#SVGID_11_);}
	.st14{fill:url(#SVGID_12_);}
	.st15{fill:url(#SVGID_13_);}
	.st16{fill:url(#SVGID_14_);}
	.st17{opacity:0.33;fill:#B3B3B3;}
</style>
<rect x="-0.3" y="0" class="st0" width="453.5" height="255.1"/>
<g class="st1">
	
		<image style="overflow:visible;" width="824" height="373" xlink:href="A00CF7CA.png"  transform="matrix(0.24 0 0 0.24 131.2457 169.5744)">
	</image>
</g>
<g>
	<linearGradient id="SVGID_1_" gradientUnits="userSpaceOnUse" x1="213.8636" y1="53.8484" x2="438.0934" y2="53.8484">
		<stop  offset="0" style="stop-color:#AB0000"/>
		<stop  offset="1" style="stop-color:#529FC9;stop-opacity:0.7"/>
		<stop  offset="1" style="stop-color:#730701;stop-opacity:0"/>
	</linearGradient>
	<path class="st2" d="M438.1,102.6c-7,2.3-13.9,4.5-20.8,7c-3.1,1.1-4.4,0.3-5.8-2.8c-15.4-35.2-39.9-62.2-74.3-79.7
		C302.7,9.7,266.4,6.7,229,16c-2.7,0.7-5.2,1.7-7.9,2.4c-2.4,0.7-4.8,1.2-7.3,1.5c27.5-15.1,56.2-25.1,88.2-21.8
		c53.9,5.6,96,30.1,123.7,77.5c0.4,0.6,0.9,1.1,1.4,1.7C430.8,85.8,434.5,94.2,438.1,102.6z"/>
	<linearGradient id="SVGID_2_" gradientUnits="userSpaceOnUse" x1="308.8045" y1="125.6098" x2="381.9344" y2="125.6098">
		<stop  offset="0" style="stop-color:#AB0000"/>
		<stop  offset="1" style="stop-color:#529FC9;stop-opacity:0.7"/>
		<stop  offset="1" style="stop-color:#730701;stop-opacity:0"/>
	</linearGradient>
	<path class="st3" d="M356.9,220.5c-4.8-3.4-9.6-6.8-14.4-10.1c-2.5-1.7-3.3-3.4-1.3-6.3c22.3-32.7,25.6-68.8,16.1-106
		c-6.5-25.4-22.1-45.7-42.9-61.8c-1.7-1.3-3.5-2.6-5.3-4c-0.2-0.2-0.1-0.6-0.3-1.6c7.8,3.2,14.6,7.5,20.9,12.3
		c39.5,30.1,63.1,85.3,47.2,137.8c-4.2,13.8-10.4,26.7-18,38.8C358.3,219.9,357.6,220.2,356.9,220.5z"/>
	<linearGradient id="SVGID_3_" gradientUnits="userSpaceOnUse" x1="269.359" y1="94.1181" x2="412.3558" y2="94.1181">
		<stop  offset="0" style="stop-color:#AB0000"/>
		<stop  offset="1" style="stop-color:#529FC9;stop-opacity:0.7"/>
		<stop  offset="1" style="stop-color:#730701;stop-opacity:0"/>
	</linearGradient>
	<path class="st4" d="M269.4,14.5c9.6-1.3,19-0.2,28.3,1.9c42,9.3,74.5,32,95.8,69.5c14.5,25.6,21.4,53.2,18,83
		c-0.5,4.4-2,6.2-6.6,5.2c-4.3-0.9-8.7-1.5-13.1-1.7c-4.8-0.2-5-2.8-4.8-6.6c1.6-24.8-2.7-48.6-12.8-71.3
		c-11.4-25.7-30.1-44.9-53.6-59.7c-15.2-9.5-31.4-16.8-49.2-19.7C270.7,15,270,14.7,269.4,14.5z"/>
	<linearGradient id="SVGID_4_" gradientUnits="userSpaceOnUse" x1="287.6882" y1="148.3918" x2="359.5716" y2="148.3918">
		<stop  offset="0" style="stop-color:#AB0000"/>
		<stop  offset="1" style="stop-color:#529FC9;stop-opacity:0.7"/>
		<stop  offset="1" style="stop-color:#730701;stop-opacity:0"/>
	</linearGradient>
	<path class="st5" d="M336.8,63.6c3.7,2.6,5,6.2,6.7,9.3c17.4,32.8,21.8,66.7,7.6,101.8c-9.6,23.7-25.3,42.3-47.4,55.5
		c-7.7,4.6-9.1,4.2-12.9-3.8c-0.3-0.7-0.6-1.3-0.9-2c-3.4-7.4-3.4-7.4,3.5-11.4c31.5-18.8,49.6-46.6,54.4-82.9
		c2.8-21-0.4-41.3-9.3-60.7C337.8,67.9,336.6,66.4,336.8,63.6z"/>
	<linearGradient id="SVGID_5_" gradientUnits="userSpaceOnUse" x1="239.0315" y1="160.9204" x2="346.7481" y2="160.9204">
		<stop  offset="0" style="stop-color:#AB0000"/>
		<stop  offset="1" style="stop-color:#529FC9;stop-opacity:0.7"/>
		<stop  offset="1" style="stop-color:#730701;stop-opacity:0"/>
	</linearGradient>
	<path class="st6" d="M331.4,147.5c6.1-8.4,7.7-18.5,10.1-28.2c1.3-5.5,1.9-11.1,3-17.2c2.1,1.8,1.8,3.9,2,5.7
		c2.2,24-5,45.6-17.4,65.8c-18.9,30.7-48,43.3-82.5,45.9c-7.9,0.6-7.9,0.1-7.2-7.8c0.9-9.6,0.9-9.5,10.8-10.6
		c33.2-3.5,60.2-17.6,78.2-46.7C329.7,152.2,331.1,150.1,331.4,147.5L331.4,147.5z"/>
	<linearGradient id="SVGID_6_" gradientUnits="userSpaceOnUse" x1="201.7817" y1="166.5833" x2="334.6817" y2="166.5833">
		<stop  offset="0" style="stop-color:#AB0000"/>
		<stop  offset="1" style="stop-color:#529FC9;stop-opacity:0.7"/>
		<stop  offset="1" style="stop-color:#730701;stop-opacity:0"/>
	</linearGradient>
	<path class="st7" d="M331.4,147.4c-7.6,11.5-15.6,22.7-27.1,30.7c-30.8,21.5-63.2,24.5-97.2,8.3c-2.2-1.1-6.2-1.9-5.1-5.3
		c1.3-4.1,3.4-8.3,7.2-10.7c1.7-1.1,3.8,0.8,5.6,1.6c19,8.2,38.6,12,59,7.3c24.8-5.7,44.8-18.6,58.7-40.3c0.4-0.6,0.9-1.1,2.2-2.7
		C334.6,141.2,331.9,144.1,331.4,147.4L331.4,147.4z"/>
	<linearGradient id="SVGID_7_" gradientUnits="userSpaceOnUse" x1="186.3308" y1="155.2587" x2="313.8981" y2="155.2587">
		<stop  offset="0" style="stop-color:#AB0000"/>
		<stop  offset="1" style="stop-color:#529FC9;stop-opacity:0.7"/>
		<stop  offset="1" style="stop-color:#730701;stop-opacity:0"/>
	</linearGradient>
	<path class="st8" d="M313.9,156.9c-20.1,17.8-43.2,26.2-69.9,20.9c-21.8-4.3-41.1-13.5-54.4-32.4c-1.6-2.3-4.6-5.1-2.6-7.8
		c2.5-3.3,6.3-5.8,10.6-6.4c2.7-0.4,3.8,2.5,5.2,4.3c8.5,11.1,18.6,20.2,31.1,26.6c18.5,9.4,37.7,9.6,57.2,3.9
		C299.1,163.7,306.8,161,313.9,156.9z"/>
</g>
<g class="st9">
	<linearGradient id="SVGID_8_" gradientUnits="userSpaceOnUse" x1="-48.6212" y1="208.7019" x2="383.1126" y2="208.7019">
		<stop  offset="0" style="stop-color:#AB0000"/>
		<stop  offset="1" style="stop-color:#529FC9;stop-opacity:0.7"/>
		<stop  offset="1" style="stop-color:#730701;stop-opacity:0"/>
	</linearGradient>
	<path class="st10" d="M-48.6,128.1c13.8-4.8,27.7-9.3,41.4-14.4c6.2-2.3,8.7-0.9,11,4.5c27.2,62,72.9,108.5,138.6,137
		c66,28.6,136.8,30.8,210.8,11c5.3-1.4,10.4-3.5,15.6-5.1c4.7-1.4,9.5-2.6,14.3-3.4c-55,29.5-112.1,49.9-174.4,46.6
		c-105-5.5-185.2-46-235.4-128.8c-0.7-1.1-1.7-1.9-2.6-2.9C-35.8,157.8-42.2,142.9-48.6,128.1z"/>
	<linearGradient id="SVGID_9_" gradientUnits="userSpaceOnUse" x1="64.767" y1="77.9492" x2="198.2666" y2="77.9492">
		<stop  offset="0" style="stop-color:#AB0000"/>
		<stop  offset="1" style="stop-color:#529FC9;stop-opacity:0.7"/>
		<stop  offset="1" style="stop-color:#730701;stop-opacity:0"/>
	</linearGradient>
	<path class="st11" d="M120.2-90.6c9.1,5.7,18.2,11.4,27.3,17c4.8,2.9,6.2,5.8,2,11.2C103.2-1.7,93.6,63.4,109.1,129.4
		c10.5,45.1,39.4,80.3,78.8,107.4c3.3,2.3,6.7,4.4,9.9,6.7c0.4,0.3,0.2,1.1,0.5,2.9c-15-5.1-27.9-12.2-39.9-20.4
		C83.7,175.2,42.2,78.1,77.6-17.6c9.3-25.2,22.5-48.8,38.5-71.3C117.5-89.4,118.8-90,120.2-90.6z"/>
	<linearGradient id="SVGID_10_" gradientUnits="userSpaceOnUse" x1="5.8227" y1="135.4245" x2="274.0711" y2="135.4245">
		<stop  offset="0" style="stop-color:#AB0000"/>
		<stop  offset="1" style="stop-color:#529FC9;stop-opacity:0.7"/>
		<stop  offset="1" style="stop-color:#730701;stop-opacity:0"/>
	</linearGradient>
	<path class="st12" d="M274.1,272.4c-19,3.2-37.2,1.9-55.2-1c-81.4-13.1-143.1-51.2-181.6-116.9C10.9,109.6-0.2,60.5,9,6.8
		c1.4-8,4.4-11.3,13.3-9.9c8.3,1.3,16.9,2,25.5,1.9c9.4-0.1,9.6,4.6,8.8,11.4c-5.2,44.7,1.2,87.2,19,127.1
		c20.1,45.2,55.1,78.2,99.9,102.7c28.9,15.8,60,27.5,94.7,31.3C271.5,271.5,272.8,272,274.1,272.4z"/>
	<linearGradient id="SVGID_11_" gradientUnits="userSpaceOnUse" x1="107.3289" y1="35.6428" x2="255.3969" y2="35.6428">
		<stop  offset="0" style="stop-color:#AB0000"/>
		<stop  offset="1" style="stop-color:#529FC9;stop-opacity:0.7"/>
		<stop  offset="1" style="stop-color:#730701;stop-opacity:0"/>
	</linearGradient>
	<path class="st13" d="M146.2,189.7c-7.1-4.4-9.3-10.8-12.3-16.2c-31.2-57.5-37-118-6.3-182.3c20.7-43.4,53.1-78.2,97.3-103.7
		c15.4-8.9,18.2-8.2,24.9,5.7c0.6,1.2,1.1,2.3,1.6,3.5c6.1,13.1,6,12.9-7.7,20.8c-63.3,36.5-101,88-113.5,153.6
		c-7.2,38-2.6,74.2,13,108.3C144.7,182.2,147,184.8,146.2,189.7z"/>
	<linearGradient id="SVGID_12_" gradientUnits="userSpaceOnUse" x1="131.0843" y1="11.1597" x2="350.4258" y2="11.1597">
		<stop  offset="0" style="stop-color:#AB0000"/>
		<stop  offset="1" style="stop-color:#529FC9;stop-opacity:0.7"/>
		<stop  offset="1" style="stop-color:#730701;stop-opacity:0"/>
	</linearGradient>
	<path class="st14" d="M141.9,90c-3.1,9.9-4.7,20.1-7.2,31.1c-4-3-3.2-6.9-3.3-10.1C129,68,144.9,28.6,170.8-8.7
		c39.5-56.8,97.5-82,165.3-89.5c15.4-1.7,15.5-0.9,13.4,13.5c-2.5,17.4-2.5,17.2-22.1,19.9C262.1-55.6,208.1-28,170.5,25.8
		c-2.8,4-7.8,11.2-11.5,18.9C159,44.7,147.3,72.3,141.9,90z"/>
	<linearGradient id="SVGID_13_" gradientUnits="userSpaceOnUse" x1="156.5466" y1="0.7822" x2="420.4346" y2="0.7822">
		<stop  offset="0" style="stop-color:#AB0000"/>
		<stop  offset="1" style="stop-color:#529FC9;stop-opacity:0.7"/>
		<stop  offset="1" style="stop-color:#730701;stop-opacity:0"/>
	</linearGradient>
	<path class="st15" d="M219.5-18.9c62-41.3,125.7-49.4,190.9-23.2c4.3,1.7,12,2.9,9.6,9.2c-2.9,7.5-7.4,15.1-15,19.8
		c-3.4,2.1-7.4-1.1-10.8-2.4c-36.4-13.2-74.5-18.2-114.9-8.1C230.3-11.3,190,13.6,161,53.7c-0.8,1.1-1.8,2.1-4.4,5
		C173.3,24.3,196.4-3.5,219.5-18.9z"/>
	<linearGradient id="SVGID_14_" gradientUnits="userSpaceOnUse" x1="198.9382" y1="15.8112" x2="447.0615" y2="15.8112">
		<stop  offset="0" style="stop-color:#AB0000"/>
		<stop  offset="1" style="stop-color:#529FC9;stop-opacity:0.7"/>
		<stop  offset="1" style="stop-color:#730701;stop-opacity:0"/>
	</linearGradient>
	<path class="st16" d="M198.9,20.1c40.8-33.7,86.8-50.6,138.6-43.4c42.3,5.9,79.3,20.7,103.7,53.7c3,4.1,8.6,8.8,4.4,13.8
		c-5.1,6.1-12.8,10.9-21.2,12.4c-5.4,0.9-7.3-4.1-9.9-7.3c-15.6-19.3-34.8-34.7-58.7-45.1C320.4-11.3,283-10.1,244.2,1.8
		C228.5,6.6,213.2,12.1,198.9,20.1z"/>
</g>
<rect x="17.8" y="16.2" class="st17" width="417.3" height="222.7"/>
</svg>
